<svg xmlns="http://www.w3.org/2000/svg" width="1120" height="620" viewBox="0 0 1120 620" role="img" aria-label="设置小窗中的使用说明页保留右侧快速定位">
  <rect width="1120" height="620" fill="#EEF2F7"/>
  <rect x="88" y="48" width="944" height="524" rx="16" fill="#FFFFFF" stroke="#D9DCE5"/>
  <rect x="88" y="48" width="246" height="524" rx="16" fill="#F7F7F8" stroke="#D9DCE5"/>
  <rect x="334" y="48" width="1" height="524" fill="#D9DCE5"/>

  <text x="118" y="90" font-family="Segoe UI, Microsoft YaHei UI, sans-serif" font-size="13" fill="#9A9A9F" font-weight="800">选项</text>
  <rect x="108" y="106" width="196" height="38" rx="7" fill="#FFFFFF" stroke="#E3E6EE"/>
  <text x="146" y="131" font-family="Segoe UI, Microsoft YaHei UI, sans-serif" font-size="16" fill="#4B5563" font-weight="700">LLM 大模型</text>
  <rect x="108" y="154" width="196" height="38" rx="7" fill="#FFFFFF" stroke="#E3E6EE"/>
  <text x="146" y="179" font-family="Segoe UI, Microsoft YaHei UI, sans-serif" font-size="16" fill="#4B5563" font-weight="700">应用</text>
  <rect x="108" y="202" width="196" height="38" rx="7" fill="#FFFFFF" stroke="#E3E6EE"/>
  <text x="146" y="227" font-family="Segoe UI, Microsoft YaHei UI, sans-serif" font-size="16" fill="#4B5563" font-weight="700">自动化</text>
  <rect x="108" y="250" width="196" height="38" rx="7" fill="#FFFFFF" stroke="#E3E6EE"/>
  <text x="146" y="275" font-family="Segoe UI, Microsoft YaHei UI, sans-serif" font-size="16" fill="#4B5563" font-weight="700">仓库与同步</text>
  <rect x="108" y="298" width="196" height="38" rx="7" fill="#FFFFFF" stroke="#E3E6EE"/>
  <text x="146" y="323" font-family="Segoe UI, Microsoft YaHei UI, sans-serif" font-size="16" fill="#4B5563" font-weight="700">第三方插件</text>
  <rect x="108" y="346" width="196" height="38" rx="7" fill="#FFFFFF" stroke="#E3E6EE"/>
  <text x="146" y="371" font-family="Segoe UI, Microsoft YaHei UI, sans-serif" font-size="16" fill="#4B5563" font-weight="700">快捷键</text>
  <rect x="108" y="394" width="196" height="38" rx="7" fill="#E9E9EC" stroke="#D4D7E0"/>
  <text x="146" y="419" font-family="Segoe UI, Microsoft YaHei UI, sans-serif" font-size="16" fill="#111827" font-weight="800">使用说明</text>
  <rect x="108" y="442" width="196" height="38" rx="7" fill="#FFFFFF" stroke="#E3E6EE"/>
  <text x="146" y="467" font-family="Segoe UI, Microsoft YaHei UI, sans-serif" font-size="16" fill="#4B5563" font-weight="700">项目日志</text>

  <rect x="376" y="88" width="350" height="170" rx="14" fill="#F5F8FC" stroke="#DDE5F4"/>
  <text x="410" y="130" font-family="Segoe UI, Microsoft YaHei UI, sans-serif" font-size="14" fill="#00A77A" font-weight="800" letter-spacing="2">USER GUIDE</text>
  <text x="410" y="170" font-family="Segoe UI, Microsoft YaHei UI, sans-serif" font-size="31" fill="#111827" font-weight="800">LLM Wiki 使用说明</text>
  <text x="410" y="206" font-family="Segoe UI, Microsoft YaHei UI, sans-serif" font-size="17" fill="#4B5563">正文区只保留说明内容，不再显示内部左目录。</text>

  <line x1="780" y1="94" x2="780" y2="520" stroke="#E3E6EE"/>
  <text x="812" y="120" font-family="Segoe UI, Microsoft YaHei UI, sans-serif" font-size="15" fill="#7A8496" font-weight="800">快速定位</text>
  <text x="812" y="160" font-family="Segoe UI, Microsoft YaHei UI, sans-serif" font-size="15" fill="#4B5563">首次启动</text>
  <text x="812" y="198" font-family="Segoe UI, Microsoft YaHei UI, sans-serif" font-size="15" fill="#4B5563">日常使用流程</text>
  <text x="812" y="236" font-family="Segoe UI, Microsoft YaHei UI, sans-serif" font-size="15" fill="#4B5563">设置页布置</text>
  <text x="812" y="274" font-family="Segoe UI, Microsoft YaHei UI, sans-serif" font-size="15" fill="#4B5563">自动化页</text>
  <text x="812" y="312" font-family="Segoe UI, Microsoft YaHei UI, sans-serif" font-size="15" fill="#4B5563">项目日志页</text>
  <text x="812" y="350" font-family="Segoe UI, Microsoft YaHei UI, sans-serif" font-size="15" fill="#4B5563">LLM 提供商怎么填</text>
  <text x="812" y="388" font-family="Segoe UI, Microsoft YaHei UI, sans-serif" font-size="15" fill="#4B5563">应用 Agent 怎么填</text>

  <text x="376" y="310" font-family="Segoe UI, Microsoft YaHei UI, sans-serif" font-size="27" fill="#111827" font-weight="800">自动化页</text>
  <text x="376" y="342" font-family="Segoe UI, Microsoft YaHei UI, sans-serif" font-size="16" fill="#4B5563">说明 Workflow 列表、详情、日志入口和筛选行移除后的使用方式。</text>
  <rect x="376" y="372" width="350" height="1" fill="#ECEFF5"/>
  <text x="376" y="420" font-family="Segoe UI, Microsoft YaHei UI, sans-serif" font-size="27" fill="#111827" font-weight="800">项目日志页</text>
  <text x="376" y="452" font-family="Segoe UI, Microsoft YaHei UI, sans-serif" font-size="16" fill="#4B5563">说明项目日志记录应用界面、工作流和同步编译变化。</text>
  <rect x="376" y="504" width="350" height="1" fill="#ECEFF5"/>

  <text x="376" y="548" font-family="Segoe UI, Microsoft YaHei UI, sans-serif" font-size="13" fill="#687487">说明：设置左栏保留页面入口；使用说明内部只保留正文和右侧快速定位。</text>
</svg>
